Coordinates
version=1
nRows=17
nColumns=33
inDegrees=yes

Units are S.I. units (second, meters, Newtons, ...)
Angles are in degrees.

endheader
time	ground_thorax_rot_x	ground_thorax_rot_y	ground_thorax_rot_z	ground_thorax_tx	ground_thorax_ty	ground_thorax_tz	clav_prot_r	clav_elev_r	scapula_abduction_r	scapula_elevation_r	scapula_upward_rot_r	scapula_winging_r	shoulder_elv_r	plane_of_elev_r	axial_rot_r	elbow_flexion_r	pro_sup_r	wrist_flex_r	wrist_dev_r	clav_prot_l	clav_elev_l	scapula_abduction_l	scapula_elevation_l	scapula_upward_rot_l	scapula_winging_l	shoulder_elv_l	plane_of_elev_l	axial_rot_l	elbow_flexion_l	pro_sup_l	wrist_flex_l	wrist_dev_l	
7.6200	40.498044	9.516862	9.935551	-205.216044	834.287573	6.037939	12.573627	40.817496	39.716242	44.999984	-26.762000	2789.153152	-3894.379320	33.000878	51.896374	381.217442	111.766887	13.462231	1.628778	8.960757	-45.000000	-38.709037	45.000000	-45.000000	-1344.858285	268.652984	135.050265	-180.000000	1452.320812	43.396956	4.868596	-22.940881	
7.6300	40.517651	9.728550	10.196834	-202.146149	832.540715	6.076566	12.613960	40.891592	39.849619	44.999971	-26.525263	2789.196261	-3894.543404	32.960570	51.582955	380.617756	104.993822	13.948979	2.077527	8.887609	-45.000000	-38.654472	45.000000	-44.999999	-1345.148170	268.610704	134.935685	-180.000000	1452.207675	41.995879	5.230626	-22.876246	
7.6400	40.534988	9.938995	10.465403	-198.955053	830.673784	6.121075	12.703986	40.983888	39.990258	44.999948	-26.300414	2789.246654	-3894.738155	32.899068	51.225817	379.461257	91.894896	14.680054	3.096984	8.782179	-45.000000	-38.593790	45.000000	-44.999999	-1345.466610	268.547120	134.836659	-180.000000	1452.071659	40.381785	5.644934	-22.791665	
7.6500	40.546199	10.153853	10.744318	-195.645091	828.691520	6.170473	12.810969	41.078793	40.125439	44.999907	-26.104649	2789.311549	-3894.957607	32.826437	50.839602	377.875257	73.914292	15.562965	4.589481	8.670568	-45.000000	-38.532304	45.000000	-44.999998	-1345.807633	268.462800	134.751921	-180.000000	1451.921607	38.662409	6.088863	-22.692919	
7.6600	40.553033	10.368984	11.034525	-192.219974	826.600166	6.223788	12.961730	41.185529	40.265381	44.999834	-25.943199	2789.383695	-3895.204503	32.746119	50.466071	375.971691	52.377030	16.522902	6.458640	8.537112	-45.000000	-38.463934	45.000000	-44.999996	-1346.177179	268.357362	134.690676	-180.000000	1451.768154	36.917028	6.543378	-22.580954	
7.6700	40.551826	10.593012	11.339171	-188.684838	824.407640	6.280070	13.117495	41.291638	40.400686	44.999703	-25.803545	2789.463470	-3895.469720	32.667224	50.188268	374.234072	32.846538	17.324107	8.229168	8.400835	-45.000000	-38.395044	45.000000	-44.999993	-1346.568122	268.235288	134.647170	-180.000000	1451.622183	35.372752	6.965405	-22.465081	
7.6800	40.543669	10.819931	11.652454	-185.046596	822.123299	6.338630	13.270382	41.399516	40.533260	44.999467	-25.649611	2789.549728	-3895.758173	32.574801	50.033310	372.714075	15.969067	17.951481	9.835635	8.260714	-45.000000	-38.325626	45.000000	-44.999987	-1346.972031	268.096640	134.609125	-180.000000	1451.478345	34.039595	7.358618	-22.342531	
7.6900	40.527054	11.055421	11.974468	-181.313768	819.758107	6.398960	13.382175	41.496285	40.651879	44.999046	-25.468465	2789.645240	-3896.057423	32.476953	50.043163	371.771465	5.877981	18.253819	10.903292	8.137286	-45.000000	-38.260043	45.000000	-44.999976	-1347.380284	267.945220	134.567289	-180.000000	1451.342147	33.063570	7.696548	-22.221615	
7.7000	40.506699	11.287723	12.298795	-177.496429	817.323956	6.460878	13.490859	41.593834	40.769725	44.998291	-25.267542	2789.745779	-3896.364781	32.375166	50.180317	371.304294	1.428708	18.308841	11.507449	8.012355	-45.000000	-38.192909	45.000000	-44.999957	-1347.795300	267.779094	134.524073	-180.000000	1451.210744	32.366333	7.994286	-22.099203	
7.7100	40.481968	11.516213	12.623775	-173.605760	814.833510	6.524324	13.579040	41.688991	40.878516	44.996939	-25.043182	2789.856147	-3896.675541	32.270796	50.421110	371.230365	1.649309	18.178537	11.708999	7.894092	-45.000000	-38.133264	45.000000	-44.999924	-1348.211519	267.599172	134.478242	-180.000000	1451.075679	31.894818	8.262861	-21.975571	
7.7200	40.456527	11.732072	12.943015	-169.654088	812.299736	6.589295	13.688417	41.791092	40.991219	44.994514	-24.817095	2789.975158	-3896.992576	32.154987	50.674740	371.152278	1.966636	18.058209	11.900520	7.766717	-45.000000	-38.074550	45.000000	-44.999863	-1348.635079	267.401246	134.437975	-180.000000	1450.930903	31.474432	8.530937	-21.846315	
7.7300	40.430233	11.936561	13.255395	-165.654289	809.735741	6.655576	13.810682	41.894561	41.103415	44.990182	-24.602823	2790.103666	-3897.310907	32.035275	50.932833	371.071610	2.379884	17.944834	12.081525	7.637371	-45.000000	-38.017793	45.000000	-44.999755	-1349.066707	267.188871	134.405825	-180.000000	1450.778018	31.134033	8.788357	-21.716854	
7.7400	40.404357	12.127775	13.555792	-161.619575	807.154350	6.722699	13.954000	41.998406	41.217207	44.982389	-24.427111	2790.235279	-3897.625870	31.928652	51.167819	370.986915	2.886743	17.838146	12.257883	7.511712	-45.000000	-37.960585	45.000000	-44.999560	-1349.508991	266.963167	134.383887	-180.000000	1450.625907	30.896410	9.025745	-21.591473	
7.7500	40.374438	12.309107	13.843475	-157.562941	804.568124	6.789841	14.071873	42.090310	41.320744	44.968522	-24.262268	2790.371874	-3897.941143	31.826638	51.405496	370.898917	3.481649	17.738793	12.420008	7.407293	-45.000000	-37.916602	45.000000	-44.999212	-1349.944988	266.727906	134.357619	-180.000000	1450.467746	30.777944	9.246439	-21.472537	
7.7600	40.341652	12.475490	14.112259	-153.496990	801.989570	6.855828	14.195638	42.178078	41.429027	44.943425	-24.105102	2790.500085	-3898.258467	31.726597	51.657892	370.808190	4.164856	17.648865	12.571321	7.304284	-45.000000	-37.880138	45.000000	-44.998589	-1350.386749	266.489458	134.338225	-180.000000	1450.309236	30.782519	9.441857	-21.362432	
7.7700	40.300621	12.628758	14.370122	-149.433233	799.431213	6.919227	14.296154	42.241655	41.542859	44.899185	-23.929779	2790.618806	-3898.578873	31.612066	51.938025	370.714401	4.932701	17.570121	12.698320	7.211430	-45.000000	-37.856906	45.000000	-44.997473	-1350.813562	266.248944	134.312572	-180.000000	1450.139478	30.906731	9.618223	-21.261411	
7.7800	40.254387	12.756303	14.605263	-145.381627	796.905508	6.978539	14.425950	42.293844	41.687749	44.817939	-23.707491	2790.702840	-3898.896388	31.472776	52.276125	370.619584	5.800279	17.506025	12.810025	7.088853	-45.000000	-37.834396	45.000000	-44.995471	-1351.245890	266.020737	134.296952	-180.000000	1449.968937	31.140801	9.761163	-21.169085	
